<svg width="20" height="20" viewBox="0 0 20 20" fill="none" xmlns="http://www.w3.org/2000/svg">
<path d="M10.0008 14.8254C10.2685 14.8254 10.4931 14.7347 10.6746 14.5532C10.856 14.3718 10.9464 14.1475 10.9458 13.8804V10.1004C10.9458 9.83264 10.8551 9.60804 10.6736 9.4266C10.4922 9.24516 10.2679 9.15476 10.0008 9.15539C9.73303 9.15539 9.50844 9.24611 9.32699 9.42755C9.14555 9.60899 9.05515 9.83327 9.05578 10.1004V13.8804C9.05578 14.1481 9.1465 14.3727 9.32794 14.5542C9.50938 14.7356 9.73366 14.826 10.0008 14.8254ZM10.0008 7.26539C10.2685 7.26539 10.4931 7.17467 10.6746 6.99323C10.856 6.81179 10.9464 6.58751 10.9458 6.32039C10.9458 6.05264 10.8551 5.82804 10.6736 5.64661C10.4922 5.46517 10.2679 5.37476 10.0008 5.37539C9.73303 5.37539 9.50844 5.46611 9.32699 5.64755C9.14555 5.82899 9.05515 6.05327 9.05578 6.32039C9.05578 6.58814 9.1465 6.81274 9.32794 6.99417C9.50938 7.17561 9.73366 7.26602 10.0008 7.26539ZM10.0008 19.5504C8.69353 19.5504 7.46503 19.3022 6.31528 18.8057C5.16553 18.3093 4.16541 17.6361 3.31491 16.7863C2.46441 15.9358 1.79125 14.9356 1.29544 13.7859C0.799631 12.6361 0.551411 11.4076 0.550781 10.1004C0.550781 8.79314 0.799001 7.56464 1.29544 6.41489C1.79188 5.26514 2.46504 4.26502 3.31491 3.41452C4.16541 2.56402 5.16553 1.89086 6.31528 1.39505C7.46503 0.899241 8.69353 0.651021 10.0008 0.650391C11.308 0.650391 12.5365 0.898611 13.6863 1.39505C14.836 1.89149 15.8362 2.56465 16.6867 3.41452C17.5372 4.26502 18.2106 5.26514 18.7071 6.41489C19.2035 7.56464 19.4514 8.79314 19.4508 10.1004C19.4508 11.4076 19.2026 12.6361 18.7061 13.7859C18.2097 14.9356 17.5365 15.9358 16.6867 16.7863C15.8362 17.6368 14.836 18.3102 13.6863 18.8067C12.5365 19.3031 11.308 19.551 10.0008 19.5504Z" fill="#60FFED"/>
</svg>
