<svg width="19" height="19" viewBox="0 0 19 19" fill="none" xmlns="http://www.w3.org/2000/svg">
<path d="M7.82593 10.7379L5.86944 8.78142C5.70261 8.61459 5.49028 8.53117 5.23245 8.53117C4.97462 8.53117 4.76229 8.61459 4.59546 8.78142C4.42863 8.94825 4.34521 9.16058 4.34521 9.41841C4.34521 9.67624 4.42863 9.88857 4.59546 10.0554L7.18893 12.6489C7.37093 12.8309 7.58326 12.9219 7.82593 12.9219C8.06859 12.9219 8.28092 12.8309 8.46292 12.6489L13.6044 7.50743C13.7712 7.3406 13.8546 7.12827 13.8546 6.87044C13.8546 6.61261 13.7712 6.40027 13.6044 6.23344C13.4375 6.06661 13.2252 5.98319 12.9674 5.98319C12.7095 5.98319 12.4972 6.06661 12.3304 6.23344L7.82593 10.7379ZM9.09991 18.1998C7.84109 18.1998 6.6581 17.9608 5.55095 17.4828C4.44379 17.0047 3.48072 16.3565 2.66173 15.5381C1.84273 14.7191 1.19452 13.756 0.717073 12.6489C0.239631 11.5417 0.000606661 10.3587 0 9.09991C0 7.84109 0.239025 6.6581 0.717073 5.55095C1.19512 4.44379 1.84334 3.48072 2.66173 2.66173C3.48072 1.84273 4.44379 1.19452 5.55095 0.717073C6.6581 0.239631 7.84109 0.000606661 9.09991 0C10.3587 0 11.5417 0.239025 12.6489 0.717073C13.756 1.19512 14.7191 1.84334 15.5381 2.66173C16.3571 3.48072 17.0056 4.44379 17.4837 5.55095C17.9617 6.6581 18.2004 7.84109 18.1998 9.09991C18.1998 10.3587 17.9608 11.5417 17.4828 12.6489C17.0047 13.756 16.3565 14.7191 15.5381 15.5381C14.7191 16.3571 13.756 17.0056 12.6489 17.4837C11.5417 17.9617 10.3587 18.2004 9.09991 18.1998Z" fill="#30E489"/>
</svg>
