<svg width="20" height="20" viewBox="0 0 20 20" fill="none" xmlns="http://www.w3.org/2000/svg">
<path d="M10.0008 5.37481C10.2685 5.37481 10.4931 5.46553 10.6746 5.64697C10.856 5.82841 10.9464 6.05269 10.9458 6.31981V10.0998C10.9458 10.3676 10.8551 10.5922 10.6736 10.7736C10.4922 10.955 10.2679 11.0454 10.0008 11.0448C9.73303 11.0448 9.50844 10.9541 9.32699 10.7726C9.14555 10.5912 9.05515 10.3669 9.05578 10.0998V6.31981C9.05578 6.05206 9.1465 5.82746 9.32794 5.64602C9.50938 5.46458 9.73366 5.37418 10.0008 5.37481ZM10.0008 12.9348C10.2685 12.9348 10.4931 13.0255 10.6746 13.207C10.856 13.3884 10.9464 13.6127 10.9458 13.8798C10.9458 14.1476 10.8551 14.3722 10.6736 14.5536C10.4922 14.735 10.2679 14.8254 10.0008 14.8248C9.73303 14.8248 9.50844 14.7341 9.32699 14.5526C9.14555 14.3712 9.05515 14.1469 9.05578 13.8798C9.05578 13.6121 9.1465 13.3875 9.32794 13.206C9.50938 13.0246 9.73366 12.9342 10.0008 12.9348ZM10.0008 0.649807C8.69353 0.649807 7.46503 0.898027 6.31528 1.39447C5.16553 1.89091 4.16541 2.56406 3.31491 3.41393C2.46441 4.26443 1.79125 5.26456 1.29544 6.41431C0.799631 7.56406 0.551411 8.79256 0.550781 10.0998C0.550781 11.4071 0.799001 12.6356 1.29544 13.7853C1.79188 14.9351 2.46504 15.9352 3.31491 16.7857C4.16541 17.6362 5.16553 18.3093 6.31528 18.8051C7.46503 19.301 8.69353 19.5492 10.0008 19.5498C11.308 19.5498 12.5365 19.3016 13.6863 18.8051C14.836 18.3087 15.8362 17.6355 16.6867 16.7857C17.5372 15.9352 18.2106 14.9351 18.7071 13.7853C19.2035 12.6356 19.4514 11.4071 19.4508 10.0998C19.4508 8.79256 19.2026 7.56406 18.7061 6.41431C18.2097 5.26456 17.5365 4.26443 16.6867 3.41393C15.8362 2.56343 14.836 1.88996 13.6863 1.39352C12.5365 0.897083 11.308 0.649178 10.0008 0.649807Z" fill="#FF6B61"/>
</svg>
